<svg id="visual" viewBox="0 0 960 540" width="960" height="540" xmlns="http://www.w3.org/2000/svg" xmlns:xlink="http://www.w3.org/1999/xlink" version="1.1"><path d="M0 158L10 168.3C20 178.7 40 199.3 60 203C80 206.7 100 193.3 120 184.8C140 176.3 160 172.7 180 178.5C200 184.3 220 199.7 240 199.8C260 200 280 185 300 176.2C320 167.3 340 164.7 360 167.8C380 171 400 180 420 175.8C440 171.7 460 154.3 480 149.3C500 144.3 520 151.7 540 161.3C560 171 580 183 600 184.8C620 186.7 640 178.3 660 173.7C680 169 700 168 720 163C740 158 760 149 780 152.2C800 155.3 820 170.7 840 172.5C860 174.3 880 162.7 900 164.7C920 166.7 940 182.3 950 190.2L960 198L960 0L950 0C940 0 920 0 900 0C880 0 860 0 840 0C820 0 800 0 780 0C760 0 740 0 720 0C700 0 680 0 660 0C640 0 620 0 600 0C580 0 560 0 540 0C520 0 500 0 480 0C460 0 440 0 420 0C400 0 380 0 360 0C340 0 320 0 300 0C280 0 260 0 240 0C220 0 200 0 180 0C160 0 140 0 120 0C100 0 80 0 60 0C40 0 20 0 10 0L0 0Z" fill="#cc5533"></path><path d="M0 185L10 173.5C20 162 40 139 60 135.8C80 132.7 100 149.3 120 159.2C140 169 160 172 180 164C200 156 220 137 240 127C260 117 280 116 300 118.8C320 121.7 340 128.3 360 132.2C380 136 400 137 420 140C440 143 460 148 480 149.8C500 151.7 520 150.3 540 151.7C560 153 580 157 600 162.3C620 167.7 640 174.3 660 177.2C680 180 700 179 720 171.8C740 164.7 760 151.3 780 143.8C800 136.3 820 134.7 840 140C860 145.3 880 157.7 900 156.8C920 156 940 142 950 135L960 128L960 0L950 0C940 0 920 0 900 0C880 0 860 0 840 0C820 0 800 0 780 0C760 0 740 0 720 0C700 0 680 0 660 0C640 0 620 0 600 0C580 0 560 0 540 0C520 0 500 0 480 0C460 0 440 0 420 0C400 0 380 0 360 0C340 0 320 0 300 0C280 0 260 0 240 0C220 0 200 0 180 0C160 0 140 0 120 0C100 0 80 0 60 0C40 0 20 0 10 0L0 0Z" fill="#cc4e32"></path><path d="M0 124L10 126.8C20 129.7 40 135.3 60 128.7C80 122 100 103 120 103.3C140 103.7 160 123.3 180 123C200 122.7 220 102.3 240 100.3C260 98.3 280 114.7 300 117.5C320 120.3 340 109.7 360 109.2C380 108.7 400 118.3 420 122.2C440 126 460 124 480 116.5C500 109 520 96 540 90.3C560 84.7 580 86.3 600 88.8C620 91.3 640 94.7 660 94.8C680 95 700 92 720 93.7C740 95.3 760 101.7 780 109.5C800 117.3 820 126.7 840 126.2C860 125.7 880 115.3 900 116.5C920 117.7 940 130.3 950 136.7L960 143L960 0L950 0C940 0 920 0 900 0C880 0 860 0 840 0C820 0 800 0 780 0C760 0 740 0 720 0C700 0 680 0 660 0C640 0 620 0 600 0C580 0 560 0 540 0C520 0 500 0 480 0C460 0 440 0 420 0C400 0 380 0 360 0C340 0 320 0 300 0C280 0 260 0 240 0C220 0 200 0 180 0C160 0 140 0 120 0C100 0 80 0 60 0C40 0 20 0 10 0L0 0Z" fill="#cc4632"></path><path d="M0 50L10 55.3C20 60.7 40 71.3 60 78.5C80 85.7 100 89.3 120 89.2C140 89 160 85 180 79.8C200 74.7 220 68.3 240 66.8C260 65.3 280 68.7 300 68.2C320 67.7 340 63.3 360 68.5C380 73.7 400 88.3 420 93.8C440 99.3 460 95.7 480 95.2C500 94.7 520 97.3 540 91.8C560 86.3 580 72.7 600 70.3C620 68 640 77 660 82.3C680 87.7 700 89.3 720 89.7C740 90 760 89 780 88.8C800 88.7 820 89.3 840 90.2C860 91 880 92 900 94C920 96 940 99 950 100.5L960 102L960 0L950 0C940 0 920 0 900 0C880 0 860 0 840 0C820 0 800 0 780 0C760 0 740 0 720 0C700 0 680 0 660 0C640 0 620 0 600 0C580 0 560 0 540 0C520 0 500 0 480 0C460 0 440 0 420 0C400 0 380 0 360 0C340 0 320 0 300 0C280 0 260 0 240 0C220 0 200 0 180 0C160 0 140 0 120 0C100 0 80 0 60 0C40 0 20 0 10 0L0 0Z" fill="#cc3d32"></path><path d="M0 37L10 41.3C20 45.7 40 54.3 60 55.2C80 56 100 49 120 48.8C140 48.7 160 55.3 180 55.8C200 56.3 220 50.7 240 47.3C260 44 280 43 300 44.3C320 45.7 340 49.3 360 48C380 46.7 400 40.3 420 41.5C440 42.7 460 51.3 480 56.5C500 61.7 520 63.3 540 60.3C560 57.3 580 49.7 600 43.8C620 38 640 34 660 36.3C680 38.7 700 47.3 720 50.5C740 53.7 760 51.3 780 46.2C800 41 820 33 840 31.3C860 29.7 880 34.3 900 37.7C920 41 940 43 950 44L960 45L960 0L950 0C940 0 920 0 900 0C880 0 860 0 840 0C820 0 800 0 780 0C760 0 740 0 720 0C700 0 680 0 660 0C640 0 620 0 600 0C580 0 560 0 540 0C520 0 500 0 480 0C460 0 440 0 420 0C400 0 380 0 360 0C340 0 320 0 300 0C280 0 260 0 240 0C220 0 200 0 180 0C160 0 140 0 120 0C100 0 80 0 60 0C40 0 20 0 10 0L0 0Z" fill="#cc3333"></path></svg>