<svg id="visual" viewBox="0 0 960 540" width="960" height="540" xmlns="http://www.w3.org/2000/svg" xmlns:xlink="http://www.w3.org/1999/xlink" version="1.1"><path d="M0 380L10 369.7C20 359.3 40 338.7 60 335C80 331.3 100 344.7 120 353.2C140 361.7 160 365.3 180 359.5C200 353.7 220 338.3 240 338.2C260 338 280 353 300 361.8C320 370.7 340 373.3 360 370.2C380 367 400 358 420 362.2C440 366.3 460 383.7 480 388.7C500 393.7 520 386.3 540 376.7C560 367 580 355 600 353.2C620 351.3 640 359.7 660 364.3C680 369 700 370 720 375C740 380 760 389 780 385.8C800 382.7 820 367.3 840 365.5C860 363.7 880 375.3 900 373.3C920 371.3 940 355.7 950 347.8L960 340L960 541L950 541C940 541 920 541 900 541C880 541 860 541 840 541C820 541 800 541 780 541C760 541 740 541 720 541C700 541 680 541 660 541C640 541 620 541 600 541C580 541 560 541 540 541C520 541 500 541 480 541C460 541 440 541 420 541C400 541 380 541 360 541C340 541 320 541 300 541C280 541 260 541 240 541C220 541 200 541 180 541C160 541 140 541 120 541C100 541 80 541 60 541C40 541 20 541 10 541L0 541Z" fill="#cc5533"></path><path d="M0 353L10 364.5C20 376 40 399 60 402.2C80 405.3 100 388.7 120 378.8C140 369 160 366 180 374C200 382 220 401 240 411C260 421 280 422 300 419.2C320 416.3 340 409.7 360 405.8C380 402 400 401 420 398C440 395 460 390 480 388.2C500 386.3 520 387.7 540 386.3C560 385 580 381 600 375.7C620 370.3 640 363.7 660 360.8C680 358 700 359 720 366.2C740 373.3 760 386.7 780 394.2C800 401.7 820 403.3 840 398C860 392.7 880 380.3 900 381.2C920 382 940 396 950 403L960 410L960 541L950 541C940 541 920 541 900 541C880 541 860 541 840 541C820 541 800 541 780 541C760 541 740 541 720 541C700 541 680 541 660 541C640 541 620 541 600 541C580 541 560 541 540 541C520 541 500 541 480 541C460 541 440 541 420 541C400 541 380 541 360 541C340 541 320 541 300 541C280 541 260 541 240 541C220 541 200 541 180 541C160 541 140 541 120 541C100 541 80 541 60 541C40 541 20 541 10 541L0 541Z" fill="#cc4e32"></path><path d="M0 414L10 411.2C20 408.3 40 402.7 60 409.3C80 416 100 435 120 434.7C140 434.3 160 414.7 180 415C200 415.3 220 435.7 240 437.7C260 439.7 280 423.3 300 420.5C320 417.7 340 428.3 360 428.8C380 429.3 400 419.7 420 415.8C440 412 460 414 480 421.5C500 429 520 442 540 447.7C560 453.3 580 451.7 600 449.2C620 446.7 640 443.3 660 443.2C680 443 700 446 720 444.3C740 442.7 760 436.3 780 428.5C800 420.7 820 411.3 840 411.8C860 412.3 880 422.7 900 421.5C920 420.3 940 407.7 950 401.3L960 395L960 541L950 541C940 541 920 541 900 541C880 541 860 541 840 541C820 541 800 541 780 541C760 541 740 541 720 541C700 541 680 541 660 541C640 541 620 541 600 541C580 541 560 541 540 541C520 541 500 541 480 541C460 541 440 541 420 541C400 541 380 541 360 541C340 541 320 541 300 541C280 541 260 541 240 541C220 541 200 541 180 541C160 541 140 541 120 541C100 541 80 541 60 541C40 541 20 541 10 541L0 541Z" fill="#cc4632"></path><path d="M0 488L10 482.7C20 477.3 40 466.7 60 459.5C80 452.3 100 448.7 120 448.8C140 449 160 453 180 458.2C200 463.3 220 469.7 240 471.2C260 472.7 280 469.3 300 469.8C320 470.3 340 474.7 360 469.5C380 464.3 400 449.7 420 444.2C440 438.7 460 442.3 480 442.8C500 443.3 520 440.7 540 446.2C560 451.7 580 465.3 600 467.7C620 470 640 461 660 455.7C680 450.3 700 448.7 720 448.3C740 448 760 449 780 449.2C800 449.3 820 448.7 840 447.8C860 447 880 446 900 444C920 442 940 439 950 437.5L960 436L960 541L950 541C940 541 920 541 900 541C880 541 860 541 840 541C820 541 800 541 780 541C760 541 740 541 720 541C700 541 680 541 660 541C640 541 620 541 600 541C580 541 560 541 540 541C520 541 500 541 480 541C460 541 440 541 420 541C400 541 380 541 360 541C340 541 320 541 300 541C280 541 260 541 240 541C220 541 200 541 180 541C160 541 140 541 120 541C100 541 80 541 60 541C40 541 20 541 10 541L0 541Z" fill="#cc3d32"></path><path d="M0 501L10 496.7C20 492.3 40 483.7 60 482.8C80 482 100 489 120 489.2C140 489.3 160 482.7 180 482.2C200 481.7 220 487.3 240 490.7C260 494 280 495 300 493.7C320 492.3 340 488.7 360 490C380 491.3 400 497.7 420 496.5C440 495.3 460 486.7 480 481.5C500 476.3 520 474.7 540 477.7C560 480.7 580 488.3 600 494.2C620 500 640 504 660 501.7C680 499.3 700 490.7 720 487.5C740 484.3 760 486.7 780 491.8C800 497 820 505 840 506.7C860 508.3 880 503.7 900 500.3C920 497 940 495 950 494L960 493L960 541L950 541C940 541 920 541 900 541C880 541 860 541 840 541C820 541 800 541 780 541C760 541 740 541 720 541C700 541 680 541 660 541C640 541 620 541 600 541C580 541 560 541 540 541C520 541 500 541 480 541C460 541 440 541 420 541C400 541 380 541 360 541C340 541 320 541 300 541C280 541 260 541 240 541C220 541 200 541 180 541C160 541 140 541 120 541C100 541 80 541 60 541C40 541 20 541 10 541L0 541Z" fill="#cc3333"></path></svg>