<svg id="visual" viewBox="0 0 960 540" width="960" height="540" xmlns="http://www.w3.org/2000/svg" xmlns:xlink="http://www.w3.org/1999/xlink" version="1.1"><path d="M0 168L32 166.3C64 164.7 128 161.3 192 160.5C256 159.7 320 161.3 384 166.7C448 172 512 181 576 190C640 199 704 208 768 203.5C832 199 896 181 928 172L960 163L960 0L928 0C896 0 832 0 768 0C704 0 640 0 576 0C512 0 448 0 384 0C320 0 256 0 192 0C128 0 64 0 32 0L0 0Z" fill="#ffffff"></path><path d="M0 352L32 346.7C64 341.3 128 330.7 192 328.8C256 327 320 334 384 341.2C448 348.3 512 355.7 576 353.8C640 352 704 341 768 333.8C832 326.7 896 323.3 928 321.7L960 320L960 161L928 170C896 179 832 197 768 201.5C704 206 640 197 576 188C512 179 448 170 384 164.7C320 159.3 256 157.7 192 158.5C128 159.3 64 162.7 32 164.3L0 166Z" fill="#db5b52"></path><path d="M0 476L32 468.8C64 461.7 128 447.3 192 443.8C256 440.3 320 447.7 384 451.3C448 455 512 455 576 457.7C640 460.3 704 465.7 768 462.8C832 460 896 449 928 443.5L960 438L960 318L928 319.7C896 321.3 832 324.7 768 331.8C704 339 640 350 576 351.8C512 353.7 448 346.3 384 339.2C320 332 256 325 192 326.8C128 328.7 64 339.3 32 344.7L0 350Z" fill="#db5b52"></path><path d="M0 541L32 541C64 541 128 541 192 541C256 541 320 541 384 541C448 541 512 541 576 541C640 541 704 541 768 541C832 541 896 541 928 541L960 541L960 436L928 441.5C896 447 832 458 768 460.8C704 463.7 640 458.3 576 455.7C512 453 448 453 384 449.3C320 445.7 256 438.3 192 441.8C128 445.3 64 459.7 32 466.8L0 474Z" fill="#ffffff"></path></svg>