<svg id="visual" viewBox="0 0 960 540" width="960" height="540" xmlns="http://www.w3.org/2000/svg" xmlns:xlink="http://www.w3.org/1999/xlink" version="1.1"><path d="M0 349L32 360C64 371 128 393 192 393.2C256 393.3 320 371.7 384 368.3C448 365 512 380 576 401C640 422 704 449 768 447.7C832 446.3 896 416.7 928 401.8L960 387L960 541L928 541C896 541 832 541 768 541C704 541 640 541 576 541C512 541 448 541 384 541C320 541 256 541 192 541C128 541 64 541 32 541L0 541Z" fill="#c33" stroke-linecap="round" stroke-linejoin="miter"></path></svg>