<svg id="visual" viewBox="0 0 960 540" width="960" height="540" xmlns="http://www.w3.org/2000/svg" xmlns:xlink="http://www.w3.org/1999/xlink" version="1.1"><rect x="0" y="0" width="960" height="540" fill="#fff"></rect><defs><linearGradient id="grad1_0" x1="43.8%" y1="100%" x2="100%" y2="0%"><stop offset="14.444444444444446%" stop-color="#ffffff" stop-opacity="1"></stop><stop offset="85.55555555555554%" stop-color="#ffffff" stop-opacity="1"></stop></linearGradient></defs><defs><linearGradient id="grad2_0" x1="0%" y1="100%" x2="56.3%" y2="0%"><stop offset="14.444444444444446%" stop-color="#ffffff" stop-opacity="1"></stop><stop offset="85.55555555555554%" stop-color="#ffffff" stop-opacity="1"></stop></linearGradient></defs><g transform="translate(960, 540)"><path d="M-162 0C-153.2 -14.6 -144.4 -29.1 -140.8 -45.7C-137.1 -62.4 -138.6 -81.1 -131.1 -95.2C-123.5 -109.4 -106.8 -118.9 -91.1 -125.4C-75.4 -131.9 -60.8 -135.2 -45.7 -140.8C-30.7 -146.3 -15.4 -154.2 0 -162L0 0Z" fill="#c33"></path></g><g transform="translate(0, 0)"><path d="M162 0C152.7 15.8 143.4 31.6 134.1 43.6C124.8 55.5 115.4 63.7 110.8 80.5C106.3 97.4 106.6 122.9 95.2 131.1C83.8 139.2 60.8 129.9 43 132.2C25.1 134.5 12.6 148.2 0 162L0 0Z" fill="#c33"></path></g></svg>