<svg id="visual" viewBox="0 0 960 540" width="960" height="540" xmlns="http://www.w3.org/2000/svg" xmlns:xlink="http://www.w3.org/1999/xlink" version="1.1"><path d="M0 196L10 198.8C20 201.7 40 207.3 60 200.3C80 193.3 100 173.7 120 174C140 174.3 160 194.7 180 195.8C200 197 220 179 240 180C260 181 280 201 300 210C320 219 340 217 360 210.2C380 203.3 400 191.7 420 182.7C440 173.7 460 167.3 480 174.5C500 181.7 520 202.3 540 199.7C560 197 580 171 600 161.3C620 151.7 640 158.3 660 163C680 167.7 700 170.3 720 174.2C740 178 760 183 780 182.2C800 181.3 820 174.7 840 169C860 163.3 880 158.7 900 165C920 171.3 940 188.7 950 197.3L960 206L960 0L950 0C940 0 920 0 900 0C880 0 860 0 840 0C820 0 800 0 780 0C760 0 740 0 720 0C700 0 680 0 660 0C640 0 620 0 600 0C580 0 560 0 540 0C520 0 500 0 480 0C460 0 440 0 420 0C400 0 380 0 360 0C340 0 320 0 300 0C280 0 260 0 240 0C220 0 200 0 180 0C160 0 140 0 120 0C100 0 80 0 60 0C40 0 20 0 10 0L0 0Z" fill="#cc3333"></path><path d="M0 128L10 127.3C20 126.7 40 125.3 60 121.8C80 118.3 100 112.7 120 111.5C140 110.3 160 113.7 180 115.7C200 117.7 220 118.3 240 126.5C260 134.7 280 150.3 300 148.7C320 147 340 128 360 121.3C380 114.7 400 120.3 420 125.3C440 130.3 460 134.7 480 142.8C500 151 520 163 540 159.5C560 156 580 137 600 126.2C620 115.3 640 112.7 660 120.7C680 128.7 700 147.3 720 150.3C740 153.3 760 140.7 780 131.5C800 122.3 820 116.7 840 119.5C860 122.3 880 133.7 900 133C920 132.3 940 119.7 950 113.3L960 107L960 0L950 0C940 0 920 0 900 0C880 0 860 0 840 0C820 0 800 0 780 0C760 0 740 0 720 0C700 0 680 0 660 0C640 0 620 0 600 0C580 0 560 0 540 0C520 0 500 0 480 0C460 0 440 0 420 0C400 0 380 0 360 0C340 0 320 0 300 0C280 0 260 0 240 0C220 0 200 0 180 0C160 0 140 0 120 0C100 0 80 0 60 0C40 0 20 0 10 0L0 0Z" fill="#cc3d32"></path><path d="M0 129L10 129.2C20 129.3 40 129.7 60 128.2C80 126.7 100 123.3 120 119.5C140 115.7 160 111.3 180 105C200 98.7 220 90.3 240 96.5C260 102.7 280 123.3 300 128.7C320 134 340 124 360 121.2C380 118.3 400 122.7 420 126.2C440 129.7 460 132.3 480 134.8C500 137.3 520 139.7 540 140.5C560 141.3 580 140.7 600 133.8C620 127 640 114 660 108C680 102 700 103 720 103.7C740 104.3 760 104.7 780 109.2C800 113.7 820 122.3 840 120C860 117.7 880 104.3 900 99.3C920 94.3 940 97.7 950 99.3L960 101L960 0L950 0C940 0 920 0 900 0C880 0 860 0 840 0C820 0 800 0 780 0C760 0 740 0 720 0C700 0 680 0 660 0C640 0 620 0 600 0C580 0 560 0 540 0C520 0 500 0 480 0C460 0 440 0 420 0C400 0 380 0 360 0C340 0 320 0 300 0C280 0 260 0 240 0C220 0 200 0 180 0C160 0 140 0 120 0C100 0 80 0 60 0C40 0 20 0 10 0L0 0Z" fill="#cc4632"></path><path d="M0 69L10 66.5C20 64 40 59 60 56.2C80 53.3 100 52.7 120 59.3C140 66 160 80 180 88C200 96 220 98 240 96C260 94 280 88 300 87.2C320 86.3 340 90.7 360 89.8C380 89 400 83 420 84C440 85 460 93 480 89.7C500 86.3 520 71.7 540 70.7C560 69.7 580 82.3 600 88.5C620 94.7 640 94.3 660 88C680 81.7 700 69.3 720 70C740 70.7 760 84.3 780 84.7C800 85 820 72 840 70.3C860 68.7 880 78.3 900 79C920 79.7 940 71.3 950 67.2L960 63L960 0L950 0C940 0 920 0 900 0C880 0 860 0 840 0C820 0 800 0 780 0C760 0 740 0 720 0C700 0 680 0 660 0C640 0 620 0 600 0C580 0 560 0 540 0C520 0 500 0 480 0C460 0 440 0 420 0C400 0 380 0 360 0C340 0 320 0 300 0C280 0 260 0 240 0C220 0 200 0 180 0C160 0 140 0 120 0C100 0 80 0 60 0C40 0 20 0 10 0L0 0Z" fill="#cc4e32"></path><path d="M0 35L10 35.8C20 36.7 40 38.3 60 43.5C80 48.7 100 57.3 120 58.8C140 60.3 160 54.7 180 49.8C200 45 220 41 240 38.3C260 35.7 280 34.3 300 38.2C320 42 340 51 360 54.7C380 58.3 400 56.7 420 52C440 47.3 460 39.7 480 35C500 30.3 520 28.7 540 31.5C560 34.3 580 41.7 600 42.3C620 43 640 37 660 34.5C680 32 700 33 720 37.2C740 41.3 760 48.7 780 52.3C800 56 820 56 840 56.8C860 57.7 880 59.3 900 61C920 62.7 940 64.3 950 65.2L960 66L960 0L950 0C940 0 920 0 900 0C880 0 860 0 840 0C820 0 800 0 780 0C760 0 740 0 720 0C700 0 680 0 660 0C640 0 620 0 600 0C580 0 560 0 540 0C520 0 500 0 480 0C460 0 440 0 420 0C400 0 380 0 360 0C340 0 320 0 300 0C280 0 260 0 240 0C220 0 200 0 180 0C160 0 140 0 120 0C100 0 80 0 60 0C40 0 20 0 10 0L0 0Z" fill="#cc5533"></path></svg>