<svg id="visual" viewBox="0 0 960 540" width="960" height="540" xmlns="http://www.w3.org/2000/svg" xmlns:xlink="http://www.w3.org/1999/xlink" version="1.1"><rect x="0" y="0" width="960" height="540" fill="#cedae3"></rect><path d="M0 316L10 329.3C20 342.7 40 369.3 60 370.7C80 372 100 348 120 347.5C140 347 160 370 180 369.5C200 369 220 345 240 341.3C260 337.7 280 354.3 300 355.2C320 356 340 341 360 344.5C380 348 400 370 420 373.8C440 377.7 460 363.3 480 355.5C500 347.7 520 346.3 540 352C560 357.7 580 370.3 600 365.7C620 361 640 339 660 335.2C680 331.3 700 345.7 720 358.5C740 371.3 760 382.7 780 383.8C800 385 820 376 840 369.5C860 363 880 359 900 354C920 349 940 343 950 340L960 337L960 541L950 541C940 541 920 541 900 541C880 541 860 541 840 541C820 541 800 541 780 541C760 541 740 541 720 541C700 541 680 541 660 541C640 541 620 541 600 541C580 541 560 541 540 541C520 541 500 541 480 541C460 541 440 541 420 541C400 541 380 541 360 541C340 541 320 541 300 541C280 541 260 541 240 541C220 541 200 541 180 541C160 541 140 541 120 541C100 541 80 541 60 541C40 541 20 541 10 541L0 541Z" fill="#cc3333"></path><path d="M0 366L10 373.2C20 380.3 40 394.7 60 393C80 391.3 100 373.7 120 376.2C140 378.7 160 401.3 180 407.2C200 413 220 402 240 402.7C260 403.3 280 415.7 300 417.3C320 419 340 410 360 404.8C380 399.7 400 398.3 420 398.5C440 398.7 460 400.3 480 393.7C500 387 520 372 540 364.8C560 357.7 580 358.3 600 359.2C620 360 640 361 660 363.8C680 366.7 700 371.3 720 378.3C740 385.3 760 394.7 780 401.5C800 408.3 820 412.7 840 405.2C860 397.7 880 378.3 900 378.5C920 378.7 940 398.3 950 408.2L960 418L960 541L950 541C940 541 920 541 900 541C880 541 860 541 840 541C820 541 800 541 780 541C760 541 740 541 720 541C700 541 680 541 660 541C640 541 620 541 600 541C580 541 560 541 540 541C520 541 500 541 480 541C460 541 440 541 420 541C400 541 380 541 360 541C340 541 320 541 300 541C280 541 260 541 240 541C220 541 200 541 180 541C160 541 140 541 120 541C100 541 80 541 60 541C40 541 20 541 10 541L0 541Z" fill="#cc3d32"></path><path d="M0 413L10 417.7C20 422.3 40 431.7 60 432.3C80 433 100 425 120 418C140 411 160 405 180 402.8C200 400.7 220 402.3 240 410C260 417.7 280 431.3 300 430.7C320 430 340 415 360 414C380 413 400 426 420 433.3C440 440.7 460 442.3 480 444C500 445.7 520 447.3 540 447.5C560 447.7 580 446.3 600 438.3C620 430.3 640 415.7 660 414.7C680 413.7 700 426.3 720 425.7C740 425 760 411 780 407.8C800 404.7 820 412.3 840 418C860 423.7 880 427.3 900 430.7C920 434 940 437 950 438.5L960 440L960 541L950 541C940 541 920 541 900 541C880 541 860 541 840 541C820 541 800 541 780 541C760 541 740 541 720 541C700 541 680 541 660 541C640 541 620 541 600 541C580 541 560 541 540 541C520 541 500 541 480 541C460 541 440 541 420 541C400 541 380 541 360 541C340 541 320 541 300 541C280 541 260 541 240 541C220 541 200 541 180 541C160 541 140 541 120 541C100 541 80 541 60 541C40 541 20 541 10 541L0 541Z" fill="#cc4632"></path><path d="M0 437L10 439.2C20 441.3 40 445.7 60 448.7C80 451.7 100 453.3 120 458.3C140 463.3 160 471.7 180 471.5C200 471.3 220 462.7 240 458.5C260 454.3 280 454.7 300 456C320 457.3 340 459.7 360 460.7C380 461.7 400 461.3 420 462.2C440 463 460 465 480 467.3C500 469.7 520 472.3 540 468.2C560 464 580 453 600 450.8C620 448.7 640 455.3 660 462.5C680 469.7 700 477.3 720 472.7C740 468 760 451 780 448.5C800 446 820 458 840 463.5C860 469 880 468 900 463.8C920 459.7 940 452.3 950 448.7L960 445L960 541L950 541C940 541 920 541 900 541C880 541 860 541 840 541C820 541 800 541 780 541C760 541 740 541 720 541C700 541 680 541 660 541C640 541 620 541 600 541C580 541 560 541 540 541C520 541 500 541 480 541C460 541 440 541 420 541C400 541 380 541 360 541C340 541 320 541 300 541C280 541 260 541 240 541C220 541 200 541 180 541C160 541 140 541 120 541C100 541 80 541 60 541C40 541 20 541 10 541L0 541Z" fill="#cc4e32"></path><path d="M0 493L10 494.3C20 495.7 40 498.3 60 498.5C80 498.7 100 496.3 120 492.3C140 488.3 160 482.7 180 484.8C200 487 220 497 240 497.2C260 497.3 280 487.7 300 488.8C320 490 340 502 360 505C380 508 400 502 420 496C440 490 460 484 480 480C500 476 520 474 540 476.7C560 479.3 580 486.7 600 490C620 493.3 640 492.7 660 494.3C680 496 700 500 720 502.8C740 505.7 760 507.3 780 506.3C800 505.3 820 501.7 840 497.2C860 492.7 880 487.3 900 483.7C920 480 940 478 950 477L960 476L960 541L950 541C940 541 920 541 900 541C880 541 860 541 840 541C820 541 800 541 780 541C760 541 740 541 720 541C700 541 680 541 660 541C640 541 620 541 600 541C580 541 560 541 540 541C520 541 500 541 480 541C460 541 440 541 420 541C400 541 380 541 360 541C340 541 320 541 300 541C280 541 260 541 240 541C220 541 200 541 180 541C160 541 140 541 120 541C100 541 80 541 60 541C40 541 20 541 10 541L0 541Z" fill="#cc5533"></path></svg>