<svg id="visual" viewBox="0 0 960 540" width="960" height="540" xmlns="http://www.w3.org/2000/svg" xmlns:xlink="http://www.w3.org/1999/xlink" version="1.1"><rect x="0" y="0" width="960" height="540" fill="#001220"></rect><path d="M0 374L10 367.7C20 361.3 40 348.7 60 339.2C80 329.7 100 323.3 120 321.8C140 320.3 160 323.7 180 330.5C200 337.3 220 347.7 240 350.8C260 354 280 350 300 352.5C320 355 340 364 360 368C380 372 400 371 420 370.7C440 370.3 460 370.7 480 365.8C500 361 520 351 540 353.8C560 356.7 580 372.3 600 381.3C620 390.3 640 392.7 660 385.8C680 379 700 363 720 354.2C740 345.3 760 343.7 780 347.8C800 352 820 362 840 365.2C860 368.3 880 364.7 900 357.8C920 351 940 341 950 336L960 331L960 541L950 541C940 541 920 541 900 541C880 541 860 541 840 541C820 541 800 541 780 541C760 541 740 541 720 541C700 541 680 541 660 541C640 541 620 541 600 541C580 541 560 541 540 541C520 541 500 541 480 541C460 541 440 541 420 541C400 541 380 541 360 541C340 541 320 541 300 541C280 541 260 541 240 541C220 541 200 541 180 541C160 541 140 541 120 541C100 541 80 541 60 541C40 541 20 541 10 541L0 541Z" fill="#c62368"></path><path d="M0 366L10 373.5C20 381 40 396 60 394.5C80 393 100 375 120 376.8C140 378.7 160 400.3 180 409.7C200 419 220 416 240 411C260 406 280 399 300 396.7C320 394.3 340 396.7 360 392.3C380 388 400 377 420 379.2C440 381.3 460 396.7 480 398.8C500 401 520 390 540 386.8C560 383.7 580 388.3 600 389.8C620 391.3 640 389.7 660 389.8C680 390 700 392 720 392C740 392 760 390 780 384C800 378 820 368 840 363.3C860 358.7 880 359.3 900 358.7C920 358 940 356 950 355L960 354L960 541L950 541C940 541 920 541 900 541C880 541 860 541 840 541C820 541 800 541 780 541C760 541 740 541 720 541C700 541 680 541 660 541C640 541 620 541 600 541C580 541 560 541 540 541C520 541 500 541 480 541C460 541 440 541 420 541C400 541 380 541 360 541C340 541 320 541 300 541C280 541 260 541 240 541C220 541 200 541 180 541C160 541 140 541 120 541C100 541 80 541 60 541C40 541 20 541 10 541L0 541Z" fill="#d53867"></path><path d="M0 402L10 409.8C20 417.7 40 433.3 60 437.5C80 441.7 100 434.3 120 426.3C140 418.3 160 409.7 180 410.2C200 410.7 220 420.3 240 429.8C260 439.3 280 448.7 300 453.3C320 458 340 458 360 448.7C380 439.3 400 420.7 420 417.3C440 414 460 426 480 428.8C500 431.7 520 425.3 540 418.3C560 411.3 580 403.7 600 403.2C620 402.7 640 409.3 660 412.2C680 415 700 414 720 417.5C740 421 760 429 780 433.2C800 437.3 820 437.7 840 434.8C860 432 880 426 900 429.5C920 433 940 446 950 452.5L960 459L960 541L950 541C940 541 920 541 900 541C880 541 860 541 840 541C820 541 800 541 780 541C760 541 740 541 720 541C700 541 680 541 660 541C640 541 620 541 600 541C580 541 560 541 540 541C520 541 500 541 480 541C460 541 440 541 420 541C400 541 380 541 360 541C340 541 320 541 300 541C280 541 260 541 240 541C220 541 200 541 180 541C160 541 140 541 120 541C100 541 80 541 60 541C40 541 20 541 10 541L0 541Z" fill="#e34c67"></path><path d="M0 448L10 451.3C20 454.7 40 461.3 60 460.5C80 459.7 100 451.3 120 452.8C140 454.3 160 465.7 180 464.2C200 462.7 220 448.3 240 443C260 437.7 280 441.3 300 447.8C320 454.3 340 463.7 360 462.3C380 461 400 449 420 451.5C440 454 460 471 480 479.5C500 488 520 488 540 481.5C560 475 580 462 600 455.5C620 449 640 449 660 454.3C680 459.7 700 470.3 720 475.7C740 481 760 481 780 479C800 477 820 473 840 471.3C860 469.7 880 470.3 900 469.2C920 468 940 465 950 463.5L960 462L960 541L950 541C940 541 920 541 900 541C880 541 860 541 840 541C820 541 800 541 780 541C760 541 740 541 720 541C700 541 680 541 660 541C640 541 620 541 600 541C580 541 560 541 540 541C520 541 500 541 480 541C460 541 440 541 420 541C400 541 380 541 360 541C340 541 320 541 300 541C280 541 260 541 240 541C220 541 200 541 180 541C160 541 140 541 120 541C100 541 80 541 60 541C40 541 20 541 10 541L0 541Z" fill="#ef5f67"></path><path d="M0 484L10 485C20 486 40 488 60 491.5C80 495 100 500 120 498.2C140 496.3 160 487.7 180 485.8C200 484 220 489 240 488.2C260 487.3 280 480.7 300 477.7C320 474.7 340 475.3 360 481.2C380 487 400 498 420 499C440 500 460 491 480 490C500 489 520 496 540 497.2C560 498.3 580 493.7 600 489.3C620 485 640 481 660 483C680 485 700 493 720 493.7C740 494.3 760 487.7 780 485C800 482.3 820 483.7 840 483.3C860 483 880 481 900 481.5C920 482 940 485 950 486.5L960 488L960 541L950 541C940 541 920 541 900 541C880 541 860 541 840 541C820 541 800 541 780 541C760 541 740 541 720 541C700 541 680 541 660 541C640 541 620 541 600 541C580 541 560 541 540 541C520 541 500 541 480 541C460 541 440 541 420 541C400 541 380 541 360 541C340 541 320 541 300 541C280 541 260 541 240 541C220 541 200 541 180 541C160 541 140 541 120 541C100 541 80 541 60 541C40 541 20 541 10 541L0 541Z" fill="#fa7268"></path></svg>