<svg id="visual" viewBox="0 0 960 540" width="960" height="540" xmlns="http://www.w3.org/2000/svg" xmlns:xlink="http://www.w3.org/1999/xlink" version="1.1"><rect x="0" y="0" width="960" height="540" fill="#fff"></rect><g fill="none" stroke="#c33" stroke-width="4"><path d="M35.9 20.7L35.9 92.5L-35.9 92.5L-35.9 20.7L-98.1 -15.2L-62.2 -77.3L0 -41.4L62.2 -77.3L98.1 -15.2Z" transform="translate(22 67)"></path><path d="M6.7 3.9L6.7 17.4L-6.7 17.4L-6.7 3.9L-18.4 -2.9L-11.7 -14.5L0 -7.8L11.7 -14.5L18.4 -2.9Z" transform="translate(917 355)"></path><path d="M25.1 14.5L25.1 64.7L-25.1 64.7L-25.1 14.5L-68.6 -10.6L-43.5 -54.1L0 -29L43.5 -54.1L68.6 -10.6Z" transform="translate(591 143)"></path><path d="M21 12.2L21 54.3L-21 54.3L-21 12.2L-57.5 -8.9L-36.5 -45.4L0 -24.3L36.5 -45.4L57.5 -8.9Z" transform="translate(91 379)"></path><path d="M28.1 16.2L28.1 72.3L-28.1 72.3L-28.1 16.2L-76.7 -11.9L-48.6 -60.5L0 -32.4L48.6 -60.5L76.7 -11.9Z" transform="translate(656 504)"></path></g></svg>