<svg id="visual" viewBox="0 0 960 540" width="960" height="540" xmlns="http://www.w3.org/2000/svg" xmlns:xlink="http://www.w3.org/1999/xlink" version="1.1"><rect x="0" y="0" width="960" height="540" fill="#eff6f9"></rect><path d="M0 248L40 263.8C80 279.7 160 311.3 240 317.5C320 323.7 400 304.3 480 287.3C560 270.3 640 255.7 720 265.2C800 274.7 880 308.3 920 325.2L960 342L960 0L920 0C880 0 800 0 720 0C640 0 560 0 480 0C400 0 320 0 240 0C160 0 80 0 40 0L0 0Z" fill="#e03a12" stroke-linecap="round" stroke-linejoin="miter"></path></svg>