<svg id="visual" viewBox="0 0 960 540" width="960" height="540" xmlns="http://www.w3.org/2000/svg" xmlns:xlink="http://www.w3.org/1999/xlink" version="1.1"><rect x="0" y="0" width="960" height="540" fill="#eff6f9"></rect><path d="M0 290L40 274.2C80 258.3 160 226.7 240 220.5C320 214.3 400 233.7 480 250.7C560 267.7 640 282.3 720 272.8C800 263.3 880 229.7 920 212.8L960 196L960 541L920 541C880 541 800 541 720 541C640 541 560 541 480 541C400 541 320 541 240 541C160 541 80 541 40 541L0 541Z" fill="#e03a12" stroke-linecap="round" stroke-linejoin="miter"></path></svg>